<svg height="128" width="128" viewBox="0 0 37 37" role="img"><path fill="#ffffff" d="M0,0 h37v37H0z" shape-rendering="crispEdges"></path><path fill="#1a365d" d="M4 4h7v1H4zM13 4h5v1H13zM19 4h1v1H19zM22 4h1v1H22zM26,4 h7v1H26zM4 5h1v1H4zM10 5h1v1H10zM13 5h1v1H13zM15 5h1v1H15zM17 5h4v1H17zM22 5h3v1H22zM26 5h1v1H26zM32,5 h1v1H32zM4 6h1v1H4zM6 6h3v1H6zM10 6h1v1H10zM12 6h1v1H12zM16 6h2v1H16zM19 6h2v1H19zM24 6h1v1H24zM26 6h1v1H26zM28 6h3v1H28zM32,6 h1v1H32zM4 7h1v1H4zM6 7h3v1H6zM10 7h1v1H10zM12 7h1v1H12zM14 7h2v1H14zM17 7h1v1H17zM21 7h1v1H21zM24 7h1v1H24zM26 7h1v1H26zM28 7h3v1H28zM32,7 h1v1H32zM4 8h1v1H4zM6 8h3v1H6zM10 8h1v1H10zM14 8h3v1H14zM20 8h2v1H20zM23 8h1v1H23zM26 8h1v1H26zM28 8h3v1H28zM32,8 h1v1H32zM4 9h1v1H4zM10 9h1v1H10zM14 9h2v1H14zM18 9h2v1H18zM21 9h1v1H21zM24 9h1v1H24zM26 9h1v1H26zM32,9 h1v1H32zM4 10h7v1H4zM12 10h1v1H12zM14 10h1v1H14zM16 10h1v1H16zM18 10h1v1H18zM20 10h1v1H20zM22 10h1v1H22zM24 10h1v1H24zM26,10 h7v1H26zM15 11h2v1H15zM19 11h2v1H19zM23 11h1v1H23zM7 12h2v1H7zM10 12h2v1H10zM13 12h1v1H13zM15 12h2v1H15zM20 12h1v1H20zM22 12h3v1H22zM29 12h2v1H29zM5 13h1v1H5zM8 13h1v1H8zM11 13h2v1H11zM14 13h2v1H14zM17 13h3v1H17zM22 13h2v1H22zM25 13h1v1H25zM27 13h2v1H27zM30 13h2v1H30zM9 14h4v1H9zM15 14h4v1H15zM20 14h1v1H20zM22 14h1v1H22zM25 14h2v1H25zM28 14h1v1H28zM6 15h2v1H6zM9 15h1v1H9zM14 15h7v1H14zM22 15h1v1H22zM28 15h2v1H28zM32,15 h1v1H32zM4 16h1v1H4zM9 16h2v1H9zM13 16h2v1H13zM16 16h1v1H16zM18 16h1v1H18zM21 16h1v1H21zM24 16h3v1H24zM29 16h1v1H29zM31 16h1v1H31zM4 17h3v1H4zM9 17h1v1H9zM13 17h1v1H13zM15 17h1v1H15zM17 17h6v1H17zM26 17h1v1H26zM28 17h1v1H28zM30,17 h3v1H30zM4 18h2v1H4zM8 18h1v1H8zM10 18h1v1H10zM15 18h1v1H15zM20 18h2v1H20zM23 18h5v1H23zM29 18h1v1H29zM32,18 h1v1H32zM4 19h1v1H4zM7 19h3v1H7zM11 19h4v1H11zM19 19h1v1H19zM21 19h4v1H21zM28 19h3v1H28zM32,19 h1v1H32zM7 20h2v1H7zM10 20h1v1H10zM14 20h5v1H14zM20 20h1v1H20zM22 20h4v1H22zM27 20h1v1H27zM29 20h1v1H29zM31,20 h2v1H31zM4 21h6v1H4zM14 21h3v1H14zM18 21h1v1H18zM22 21h3v1H22zM28 21h1v1H28zM4 22h3v1H4zM8 22h1v1H8zM10 22h1v1H10zM12 22h1v1H12zM14 22h1v1H14zM18 22h1v1H18zM20 22h2v1H20zM23 22h2v1H23zM27 22h1v1H27zM30 22h1v1H30zM32,22 h1v1H32zM4 23h4v1H4zM9 23h1v1H9zM14 23h10v1H14zM25 23h3v1H25zM30 23h1v1H30zM4 24h5v1H4zM10 24h2v1H10zM13 24h3v1H13zM20 24h1v1H20zM22 24h1v1H22zM24 24h5v1H24zM30 24h2v1H30zM12 25h1v1H12zM16 25h4v1H16zM24 25h1v1H24zM28 25h3v1H28zM4 26h7v1H4zM12 26h1v1H12zM16 26h4v1H16zM21 26h1v1H21zM23 26h2v1H23zM26 26h1v1H26zM28 26h1v1H28zM30 26h1v1H30zM4 27h1v1H4zM10 27h1v1H10zM13 27h1v1H13zM16 27h2v1H16zM20 27h5v1H20zM28 27h2v1H28zM32,27 h1v1H32zM4 28h1v1H4zM6 28h3v1H6zM10 28h1v1H10zM12 28h4v1H12zM18 28h1v1H18zM20 28h2v1H20zM23 28h6v1H23zM32,28 h1v1H32zM4 29h1v1H4zM6 29h3v1H6zM10 29h1v1H10zM12 29h1v1H12zM14 29h1v1H14zM20 29h1v1H20zM27 29h1v1H27zM30 29h2v1H30zM4 30h1v1H4zM6 30h3v1H6zM10 30h1v1H10zM14 30h4v1H14zM19 30h4v1H19zM24 30h2v1H24zM27 30h3v1H27zM31,30 h2v1H31zM4 31h1v1H4zM10 31h1v1H10zM13 31h1v1H13zM15 31h1v1H15zM18 31h1v1H18zM25 31h1v1H25zM28 31h3v1H28zM32,31 h1v1H32zM4 32h7v1H4zM13 32h2v1H13zM18 32h3v1H18zM22 32h7v1H22z" shape-rendering="crispEdges"></path></svg>