<?xml version="1.0" encoding="utf-8"?>
<!-- Generator: Adobe Illustrator 25.0.1, SVG Export Plug-In . SVG Version: 6.00 Build 0)  -->
<svg version="1.1" id="Layer_1" xmlns="http://www.w3.org/2000/svg" xmlns:xlink="http://www.w3.org/1999/xlink" x="0px" y="0px"
	 viewBox="0 0 256 256" style="enable-background:new 0 0 256 256;" xml:space="preserve">
<style type="text/css">
	.st0{fill:#1A365D;}
	.st1{enable-background:new    ;}
	.st2{fill:#FFFFFF;}
</style>
<rect x="-532" class="st0" width="512" height="512"/>
<g>
	<g>
		<g class="st1">
			<path class="st2" d="M207.7-128.7v-213.6h60v213.6H207.7z M337.3-128.7L262.6-240l71.1-102.3H406l-82.2,111v-19.2l85.5,121.8
				H337.3z"/>
			<path class="st2" d="M428.8-128.7v-213.6h60v213.6H428.8z M477.4-213.9v-41.4h36.3c8.2,0,14.4-2,18.8-6c4.3-4,6.5-9.3,6.5-15.9
				s-2.2-11.9-6.5-15.9c-4.3-4-10.6-6-18.8-6h-36.3v-43.2h45.9c14.8,0,27.8,2.7,39,8.1c11.2,5.4,20,12.9,26.4,22.5
				c6.4,9.6,9.6,20.8,9.6,33.6c0,12.8-3.3,24-9.8,33.6c-6.5,9.6-15.6,17.1-27.2,22.5c-11.6,5.4-25.3,8.1-41.1,8.1H477.4z M544-128.7
				l-58.2-91.2l54-11.7l72.3,102.9H544z"/>
		</g>
	</g>
</g>
<g>
	<g>
		<g class="st1">
			<path class="st2" d="M-467.4,343.6V130h60v213.6H-467.4z M-337.8,343.6l-74.7-111.3l71.1-102.3h72.3l-82.2,111v-19.2l85.5,121.8
				H-337.8z"/>
			<path class="st2" d="M-246.3,343.6V130h60v213.6H-246.3z M-197.7,258.4V217h36.3c8.2,0,14.4-2,18.8-6c4.3-4,6.5-9.3,6.5-15.9
				c0-6.6-2.2-11.9-6.5-15.9c-4.3-4-10.6-6-18.8-6h-36.3V130h45.9c14.8,0,27.8,2.7,39,8.1c11.2,5.4,20,12.9,26.4,22.5
				c6.4,9.6,9.6,20.8,9.6,33.6c0,12.8-3.3,24-9.8,33.6c-6.5,9.6-15.6,17.1-27.2,22.5c-11.6,5.4-25.3,8.1-41.1,8.1H-197.7z
				 M-131.1,343.6l-58.2-91.2l54-11.7L-63,343.6H-131.1z"/>
		</g>
	</g>
</g>
<rect class="st0" width="256" height="256"/>
<g>
	<g>
		<g class="st1">
			<path class="st2" d="M32.3,171.8V65h30v106.8H32.3z M97.1,171.8l-37.4-55.7L95.3,65h36.2l-41.1,55.5v-9.6l42.8,60.9H97.1z"/>
			<path class="st2" d="M142.8,171.8V65h30v106.8H142.8z M167.2,129.2v-20.7h18.1c4.1,0,7.2-1,9.4-3c2.1-2,3.2-4.7,3.2-8
				s-1.1-5.9-3.2-8c-2.2-2-5.3-3-9.4-3h-18.1V65h22.9c7.4,0,13.9,1.3,19.5,4c5.6,2.7,10,6.5,13.2,11.2c3.2,4.8,4.8,10.4,4.8,16.8
				c0,6.4-1.6,12-4.9,16.8c-3.2,4.8-7.8,8.6-13.6,11.2c-5.8,2.7-12.7,4.1-20.6,4.1H167.2z M200.5,171.8l-29.1-45.6l27-5.9l36.2,51.5
				H200.5z"/>
		</g>
	</g>
</g>
</svg>
