<?xml version="1.0" encoding="utf-8" ?>
<svg baseProfile="tiny" height="100" version="1.2" width="100" xmlns="http://www.w3.org/2000/svg" xmlns:ev="http://www.w3.org/2001/xml-events" xmlns:xlink="http://www.w3.org/1999/xlink"><defs /><circle cx="50" cy="50" fill="blue" r="15" stroke="black" stroke-width="2" /><line stroke="black" stroke-width="2" x1="50" x2="50" y1="35" y2="10" /><line stroke="black" stroke-width="2" x1="50" x2="50" y1="65" y2="90" /><line stroke="black" stroke-width="2" x1="35" x2="10" y1="50" y2="50" /><line stroke="black" stroke-width="2" x1="65" x2="90" y1="50" y2="50" /><line stroke="black" stroke-width="2" x1="42" x2="25" y1="42" y2="25" /><line stroke="black" stroke-width="2" x1="58" x2="75" y1="42" y2="25" /><line stroke="black" stroke-width="2" x1="42" x2="25" y1="58" y2="75" /><line stroke="black" stroke-width="2" x1="58" x2="75" y1="58" y2="75" /><circle cx="50" cy="10" fill="red" r="3" stroke="black" stroke-width="1" /><circle cx="50" cy="90" fill="red" r="3" stroke="black" stroke-width="1" /><circle cx="10" cy="50" fill="red" r="3" stroke="black" stroke-width="1" /><circle cx="90" cy="50" fill="red" r="3" stroke="black" stroke-width="1" /><circle cx="25" cy="25" fill="red" r="3" stroke="black" stroke-width="1" /><circle cx="75" cy="25" fill="red" r="3" stroke="black" stroke-width="1" /><circle cx="25" cy="75" fill="red" r="3" stroke="black" stroke-width="1" /><circle cx="75" cy="75" fill="red" r="3" stroke="black" stroke-width="1" /></svg>